<?xml version="1.0" encoding="utf-8"?>
<svg width="161px" height="167px" viewBox="0 0 161 167" version="1.1" xmlns:xlink="http://www.w3.org/1999/xlink" xmlns="http://www.w3.org/2000/svg">
  <path d="M80.5955 166.732L80.5955 165.39C83.3436 158.024 97.3192 121.751 116.873 91.6774C138.75 58.0299 160.697 44.8313 160.697 44.8313C160.697 44.8313 155.82 29.9625 143.57 15.6154C131.32 1.26828 116.873 0 116.873 0C116.873 0 102.624 5.33209 93.1978 19.6452C85.1645 31.8427 81.3117 41.542 80.3483 44.1427C79.3849 41.542 75.5321 31.8427 67.4988 19.6452C58.0722 5.33209 43.8238 0 43.8238 0C43.8238 0 29.3764 1.26828 17.1266 15.6154C4.87673 29.9625 0 44.8313 0 44.8313C0 44.8313 21.9468 58.0299 43.8238 91.6774C63.3774 121.751 77.353 158.024 80.101 165.39L80.101 166.732C80.101 166.732 80.1845 166.5 80.3483 166.056C80.512 166.5 80.5955 166.732 80.5955 166.732ZM68.601 46.8934C77.4057 62.7039 80.101 75.8934 80.101 75.8934L80.101 124.893C80.101 124.893 60.9376 87.6538 46.101 67.8933C31.2644 48.1328 21.101 43.8934 21.101 43.8934C21.101 43.8934 25.8564 33.5354 32.0978 27.1877C38.3392 20.84 42.0748 17.95 46.101 19.3934C50.1272 20.8368 59.7963 31.0829 68.601 46.8934Z" id="New-shape-Union-Union-Xor-Union-Intersect" fill="#000000" fill-rule="evenodd" stroke="none" />
</svg>