<?xml version="1.0" encoding="utf-8"?>
<svg width="130px" height="167px" viewBox="0 0 130 167" version="1.1" xmlns:xlink="http://www.w3.org/1999/xlink" xmlns="http://www.w3.org/2000/svg">
  <path d="M65 0L65 0.0398865C65 0.0398865 53.9984 13.4391 48 20.0399C42.0016 26.6407 30.7163 41.7237 15.5 64.0399C0.283691 86.3561 0 107.54 0 107.54L7 121.04C7 121.04 7.62976 120.566 11 114.54C14.3702 108.514 27.2838 97.9242 37.5 99.5399C47.7162 101.156 52 158.04 52 158.04L65 166.04L65 166L78 158C78 158 82.2838 101.116 92.5 99.5C102.716 97.8843 115.63 108.474 119 114.5C122.37 120.526 123 121 123 121L130 107.5C130 107.5 129.716 86.3162 114.5 64C99.2837 41.6838 87.9984 26.6008 82 20C76.0016 13.3992 65 0 65 0ZM64 23.0399L64 141.04C64 141.04 62.5422 91.5533 48.5 85.5399C34.4578 79.5264 19.5 94.0399 19.5 94.0399C19.5 94.0399 22.7555 75.3459 38 54.5399C53.2445 33.7339 64 23.0399 64 23.0399Z" id="New-shape-Union-2-Xor-Intersect" fill="#FFFFFF" fill-rule="evenodd" stroke="none" />
</svg>