<?xml version="1.0" encoding="utf-8"?>
<svg width="405px" height="406px" viewBox="0 0 405 406" version="1.1" xmlns:xlink="http://www.w3.org/1999/xlink" xmlns="http://www.w3.org/2000/svg">
  <path d="M111.981 39.9632C139.984 21.074 130.728 0 130.728 0C130.728 0 128.588 16.4728 102.821 29.5988C77.0537 42.7247 64.6466 49.9304 46.6065 62.4615C28.5662 74.9927 -2.26837 109.782 0.13231 152.016C2.533 194.25 28.5863 251.791 97.4824 262.943C166.378 274.095 174.552 299.715 174.552 299.715C174.552 299.715 173.198 282.274 148.862 255.387C124.526 228.5 116.32 220.936 79.8279 180.548C61.3369 160.083 51.7843 125.193 61.223 99.8151C69.0114 78.8745 83.9774 58.8524 111.981 39.9632ZM273.291 0C273.291 0 264.035 21.074 292.039 39.9632C320.042 58.8524 335.008 78.8745 342.796 99.8151C352.235 125.193 342.682 160.083 324.191 180.548C287.699 220.936 279.493 228.5 255.157 255.387C230.822 282.274 229.467 299.715 229.467 299.715C229.467 299.715 237.641 274.095 306.537 262.943C375.433 251.791 401.486 194.25 403.887 152.016C406.288 109.782 375.453 74.9927 357.413 62.4615C339.373 49.9304 326.965 42.7247 301.198 29.5988C275.431 16.4728 273.291 0 273.291 0ZM108.449 86.0458C136.086 47.9088 177.071 26.1935 177.071 26.1935C177.071 26.1935 128.657 33.8398 95.9715 81.603C63.2859 129.366 88.4157 176.303 88.4157 176.303C88.4157 176.303 80.811 124.183 108.449 86.0458ZM226.948 26.1935C226.948 26.1935 267.933 47.9088 295.57 86.0458C323.208 124.183 315.603 176.303 315.603 176.303C315.603 176.303 340.733 129.366 308.048 81.603C275.362 33.8398 226.948 26.1935 226.948 26.1935ZM202.257 247.496L202.257 248.839C202.257 248.839 202.173 248.606 202.01 248.163C201.846 248.606 201.762 248.839 201.762 248.839L201.762 247.496C199.014 240.131 185.039 203.858 165.485 173.784C143.608 140.137 121.661 126.938 121.661 126.938C121.661 126.938 126.538 112.069 138.788 97.7221C151.038 83.375 165.485 82.1067 165.485 82.1067C165.485 82.1067 179.734 87.4388 189.16 101.752C197.193 113.949 201.046 123.649 202.01 126.249C202.973 123.649 206.826 113.949 214.859 101.752C224.286 87.4388 238.534 82.1067 238.534 82.1067C238.534 82.1067 252.982 83.375 265.231 97.7221C277.481 112.069 282.358 126.938 282.358 126.938C282.358 126.938 260.411 140.137 238.534 173.784C218.981 203.858 205.005 240.131 202.257 247.496ZM201.762 158C201.762 158 199.067 144.811 190.262 129C181.458 113.19 171.789 102.943 167.762 101.5C163.736 100.057 160.001 102.947 153.759 109.294C147.518 115.642 142.762 126 142.762 126C142.762 126 152.926 130.239 167.762 150C182.599 169.761 201.762 207 201.762 207L201.762 158L201.762 158ZM135.766 161.191C135.766 161.191 142.861 168.064 144.833 171.266C146.804 174.467 151.394 181.34 151.394 181.34L121.661 211.06L103.527 192.926L135.766 161.191ZM259.187 171.266C261.158 168.064 268.254 161.191 268.254 161.191L300.492 192.926L282.358 211.06L252.625 181.34C252.625 181.34 257.216 174.467 259.187 171.266ZM183.115 267.98C180.525 254.957 168.004 230.705 168.004 230.705C168.004 230.705 190.874 255.302 194.36 278.769C197.846 302.237 193.83 313.939 192.686 315.33C191.542 316.721 190.663 314.994 190.168 308.278C189.672 301.561 185.706 281.004 183.115 267.98ZM236.015 230.705C236.015 230.705 223.494 254.957 220.904 267.98C218.313 281.004 214.347 301.561 213.852 308.278C213.356 314.994 212.477 316.721 211.333 315.33C210.189 313.939 206.173 302.237 209.659 278.769C213.145 255.302 236.015 230.705 236.015 230.705ZM201.762 405.509L76.3264 281.077L40.0584 260.424L117.632 286.114L202.01 370.492L286.388 286.114L363.961 260.424L327.693 281.077L202.257 405.509L202.257 406L202.01 405.755L201.762 406L201.762 405.509Z" id="New-shape-Union-Union-Xor-Union" fill="#000000" fill-rule="evenodd" stroke="none" />
</svg>