<?xml version="1.0" encoding="utf-8"?>
<svg width="358px" height="411px" viewBox="0 0 358 411" version="1.1" xmlns:xlink="http://www.w3.org/1999/xlink" xmlns="http://www.w3.org/2000/svg">
  <defs>
    <path d="M0 0L357 0L357 410L0 410L0 0Z" id="path_1" />
    <clipPath id="mask_1">
      <use xlink:href="#path_1" />
    </clipPath>
  </defs>
  <g id="akali-black" transform="translate(0.5 0.5)">
    <path d="M0 0L357 0L357 410L0 410L0 0Z" id="Background" fill="none" fill-rule="evenodd" stroke="none" />
    <g clip-path="url(#mask_1)">
      <path d="M178 387L83.5 131L138 170.5L156 147L136.5 139L154 127L163 52.5L150.5 39.5L178 0L205.5 39.5L193 52.5L202 127L219.5 139L200 147L218 170.5L272.5 131L178 387L178 387ZM176 43L170 37L178 22L186.5 37L180 43L176 43L176 43ZM0 115L103 273L90 212L0 115L0 115ZM356 115L253 273L266 212L356 115L356 115ZM176 167L176 314L140 204.5L176 167L176 167ZM71 260L38 237L44.5 252L27.5 267.5L168.5 408.5L156.5 360L64 267.5L71 260L71 260ZM285 260L318 237L311.5 252L328.5 267.5L187.5 408.5L199.5 360L292 267.5L285 260L285 260Z" transform="translate(0.5 0.5)" id="New-shape-Union-Union-Xor" fill="#FFFFFF" fill-rule="evenodd" stroke="#FFFFFF" stroke-width="1" />
    </g>
  </g>
</svg>