<?xml version="1.0" encoding="utf-8"?>
<svg width="387px" height="388px" viewBox="0 0 387 388" version="1.1" xmlns:xlink="http://www.w3.org/1999/xlink" xmlns="http://www.w3.org/2000/svg">
  <path d="M207.499 0.160187C207.499 0.160187 257.714 -2.19548 310.5 11.1602C363.285 24.5159 387 49.1602 387 49.1602C387 49.1602 362.742 37.7372 350.17 38.1602C337.597 38.5832 337 40.6602 337 40.6602C337 40.6602 398.125 87.4097 378.5 141.66C358.875 195.911 311.693 210.929 282.252 220.466C252.811 230.003 227.004 247.605 216 266.16C204.995 284.715 204.303 303.248 204.303 303.248C204.303 303.248 190.326 274.098 210.902 245.847C231.477 217.595 270 197.66 270 197.66L255 183.66C255 183.66 260.796 175.585 264 170.66C267.203 165.735 270 161.66 270 161.66L290 182.16C290 182.16 334.474 148.884 294 79.1602C253.526 9.43599 207.499 0.160187 207.499 0.160187ZM76.5003 11.2001C129.286 -2.15559 179.501 0.200074 179.501 0.200074C179.501 0.200074 133.474 9.47587 93.0003 79.2001C52.5265 148.924 97.0003 182.2 97.0003 182.2L117 161.7C117 161.7 119.797 165.775 123 170.7C126.204 175.625 132 183.7 132 183.7L117 197.7C117 197.7 155.523 217.635 176.098 245.886C196.674 274.137 182.697 303.288 182.697 303.288C182.697 303.288 182.005 284.755 171 266.2C159.996 247.645 134.189 230.043 104.748 220.506C75.3069 210.969 28.1254 195.951 8.50002 141.7C-11.1254 87.4496 50.0001 40.7001 50.0001 40.7001C50.0001 40.7001 49.403 38.6231 36.8304 38.2001C24.2579 37.7771 5.58301e-06 49.2001 5.58301e-06 49.2001C5.58301e-06 49.2001 23.7148 24.5558 76.5003 11.2001ZM193.5 38.2L193.5 38.1602C193.5 38.1602 204.502 51.5594 210.5 58.1602C216.498 64.761 227.784 79.8439 243 102.16C258.216 124.476 258.5 145.66 258.5 145.66L251.5 159.16C251.5 159.16 250.87 158.686 247.5 152.66C244.13 146.634 231.216 136.044 221 137.66C210.784 139.276 206.5 196.16 206.5 196.16L193.5 204.16L193.5 204.2L180.5 196.2C180.5 196.2 176.216 139.316 166 137.7C155.784 136.084 142.87 146.674 139.5 152.7C136.13 158.726 135.5 159.2 135.5 159.2L128.5 145.7C128.5 145.7 128.784 124.516 144 102.2C159.216 79.8838 170.502 64.8008 176.5 58.2C182.498 51.5992 193.5 38.2 193.5 38.2ZM192.5 179.2L192.5 61.2C192.5 61.2 181.745 71.894 166.5 92.7C151.255 113.506 148 132.2 148 132.2C148 132.2 162.958 117.687 177 123.7C191.042 129.714 192.5 179.2 192.5 179.2ZM335.5 214.16L330.5 223.16L343.5 235.66L194 386.16L194 385.575L193.5 387.7L193 384.158L193 386.2L43.5 235.7L56.5 223.2L51.5 214.2L84.5 230.2L79 235.7L190.564 347.753L193.5 350.2L194.417 349.742L308 235.66L302.5 230.16L335.5 214.16Z" id="New-shape-Union-2-Xor" fill="#FFFFFF" fill-rule="evenodd" stroke="none" />
</svg>