<?xml version="1.0" encoding="utf-8"?>
<svg width="391px" height="404px" viewBox="0 0 391 404" version="1.1" xmlns:xlink="http://www.w3.org/1999/xlink" xmlns="http://www.w3.org/2000/svg">
  <path d="M90.0001 42.5L93 93.5L61 55.5C61 55.5 60.6174 38.6447 60.5 28C60.3827 17.3553 60.5001 0 60.5001 0C60.5001 0 68.0191 11.4005 75.5001 22.5C82.981 33.5995 90.0001 42.5 90.0001 42.5ZM300 42.5L297 93.5L329 55.5C329 55.5 329.383 38.6447 329.5 28C329.617 17.3553 329.5 0 329.5 0C329.5 0 321.981 11.4005 314.5 22.5C307.019 33.5995 300 42.5 300 42.5ZM195 12.5L118.5 89.5L141.5 156.5L111 187C111 187 108.508 180.037 107 173C105.492 165.963 104.5 159.5 104.5 159.5C104.5 159.5 71.964 131.711 45 100.5C18.036 69.2886 0 17.5 0 17.5C0 17.5 0.386596 65.1912 17 121.5C33.6134 177.809 57.5 214.5 57.5 214.5L161.5 298C161.5 298 152.028 283.704 139.5 262C126.972 240.296 119 214.5 119 214.5L151 183.5L195 314.5L239 183.5L271 214.5C271 214.5 263.028 240.296 250.5 262C237.972 283.704 228.5 298 228.5 298L332.5 214.5C332.5 214.5 356.387 177.809 373 121.5C389.613 65.1912 390 17.5 390 17.5C390 17.5 371.964 69.2886 345 100.5C318.036 131.711 285.5 159.5 285.5 159.5C285.5 159.5 284.508 165.963 283 173C281.492 180.037 279 187 279 187L248.5 156.5L271.5 89.5L195 12.5ZM190 121.5L144 93.5L190 48.5L190 121.5ZM59 168.5C35.6528 129.507 21 83.5 21 83.5C21 83.5 34.3176 104.784 53 128.5C71.6824 152.216 95.5 173.5 95.5 173.5L105.5 233C105.5 233 82.3472 207.493 59 168.5ZM331 168.5C354.347 129.507 369 83.5 369 83.5C369 83.5 355.682 104.784 337 128.5C318.318 152.216 294.5 173.5 294.5 173.5L284.5 233C284.5 233 307.653 207.493 331 168.5ZM190 132.5L190 234.5L147 106L190 132.5ZM51 223.5L195 367.5L339 223.5L333.5 241.5L345 253.5L195 403L45 253.5L56.5 241.5L51 223.5Z" transform="translate(0.5 0.5)" id="New-shape-Union-Xor-Union-Xor" fill="#FFFFFF" fill-rule="evenodd" stroke="#FFFFFF" stroke-width="1" />
</svg>